<svg xmlns="http://www.w3.org/2000/svg" viewBox="0 0 64 64" width="64" height="64">
  <defs>
    <linearGradient id="fg" x1="0%" y1="0%" x2="100%" y2="100%">
      <stop offset="0%"  stop-color="#FFD700"/>
      <stop offset="50%" stop-color="#C9A84C"/>
      <stop offset="100%" stop-color="#8B6914"/>
    </linearGradient>
    <linearGradient id="fbg" x1="0%" y1="0%" x2="100%" y2="100%">
      <stop offset="0%" stop-color="#1D1D1F"/>
      <stop offset="100%" stop-color="#0a0f1e"/>
    </linearGradient>
    <filter id="fsh">
      <feDropShadow dx="0" dy="2" stdDeviation="4" flood-color="rgba(201,168,76,0.5)"/>
    </filter>
  </defs>
  <rect x="2" y="2" width="60" height="60" rx="14" fill="url(#fbg)" filter="url(#fsh)"/>
  <rect x="2" y="2" width="60" height="60" rx="14" fill="none" stroke="url(#fg)" stroke-width="1.5"/>
  <rect x="2" y="2" width="30" height="30" rx="14 0 0 0" fill="rgba(255,255,255,0.05)"/>
  <circle cx="32" cy="18" r="5.5" fill="url(#fg)"/>
  <rect x="27.5" y="26" width="9" height="26" rx="4.5" fill="url(#fg)"/>
  <rect x="20" y="52" width="24" height="2.5" rx="1.25" fill="url(#fg)" opacity="0.5"/>
  <g transform="translate(50,14)" opacity="0.9">
    <polygon points="0,-5 1.2,-1.2 5,0 1.2,1.2 0,5 -1.2,1.2 -5,0 -1.2,-1.2" fill="url(#fg)"/>
  </g>
  <circle cx="13" cy="52" r="2.5" fill="rgba(201,168,76,0.45)"/>
</svg>
